<mxfile host="app.diagrams.net" modified="2023-09-01T10:18:46.267Z" agent="Mozilla/5.0 (Windows NT 10.0; Win64; x64; rv:109.0) Gecko/20100101 Firefox/117.0" etag="StnYBQyNJuO_4lIgu5uS" version="21.6.9" type="github">
  <diagram name="第 1 页" id="-7lYUs0J4qmkcCZle5Io">
    <mxGraphModel dx="1395" dy="622" grid="1" gridSize="10" guides="1" tooltips="1" connect="1" arrows="1" fold="1" page="1" pageScale="1" pageWidth="827" pageHeight="1169" math="0" shadow="0">
      <root>
        <mxCell id="0" />
        <mxCell id="1" parent="0" />
        <mxCell id="CP-4DiRKg8OsWxBLcnmP-1" value="" style="ellipse;whiteSpace=wrap;html=1;aspect=fixed;" vertex="1" parent="1">
          <mxGeometry x="80" y="101" width="30" height="30" as="geometry" />
        </mxCell>
        <mxCell id="CP-4DiRKg8OsWxBLcnmP-2" value="" style="ellipse;whiteSpace=wrap;html=1;aspect=fixed;" vertex="1" parent="1">
          <mxGeometry x="190" y="21" width="30" height="30" as="geometry" />
        </mxCell>
        <mxCell id="CP-4DiRKg8OsWxBLcnmP-3" value="" style="ellipse;whiteSpace=wrap;html=1;aspect=fixed;" vertex="1" parent="1">
          <mxGeometry x="190" y="101" width="30" height="30" as="geometry" />
        </mxCell>
        <mxCell id="CP-4DiRKg8OsWxBLcnmP-4" value="" style="ellipse;whiteSpace=wrap;html=1;aspect=fixed;" vertex="1" parent="1">
          <mxGeometry x="190" y="181" width="30" height="30" as="geometry" />
        </mxCell>
        <mxCell id="CP-4DiRKg8OsWxBLcnmP-5" value="" style="ellipse;whiteSpace=wrap;html=1;aspect=fixed;" vertex="1" parent="1">
          <mxGeometry x="300" y="131" width="30" height="30" as="geometry" />
        </mxCell>
        <mxCell id="CP-4DiRKg8OsWxBLcnmP-6" value="" style="endArrow=classic;html=1;rounded=0;entryX=0;entryY=1;entryDx=0;entryDy=0;exitX=1;exitY=0;exitDx=0;exitDy=0;" edge="1" parent="1" source="CP-4DiRKg8OsWxBLcnmP-1" target="CP-4DiRKg8OsWxBLcnmP-2">
          <mxGeometry width="50" height="50" relative="1" as="geometry">
            <mxPoint x="110" y="111" as="sourcePoint" />
            <mxPoint x="160" y="61" as="targetPoint" />
          </mxGeometry>
        </mxCell>
        <mxCell id="CP-4DiRKg8OsWxBLcnmP-7" value="" style="endArrow=classic;html=1;rounded=0;entryX=0;entryY=0.5;entryDx=0;entryDy=0;exitX=1;exitY=0.5;exitDx=0;exitDy=0;" edge="1" parent="1" source="CP-4DiRKg8OsWxBLcnmP-1" target="CP-4DiRKg8OsWxBLcnmP-3">
          <mxGeometry width="50" height="50" relative="1" as="geometry">
            <mxPoint x="116" y="115" as="sourcePoint" />
            <mxPoint x="204" y="57" as="targetPoint" />
          </mxGeometry>
        </mxCell>
        <mxCell id="CP-4DiRKg8OsWxBLcnmP-8" value="" style="endArrow=classic;html=1;rounded=0;entryX=0;entryY=0;entryDx=0;entryDy=0;exitX=1;exitY=1;exitDx=0;exitDy=0;" edge="1" parent="1" source="CP-4DiRKg8OsWxBLcnmP-1" target="CP-4DiRKg8OsWxBLcnmP-4">
          <mxGeometry width="50" height="50" relative="1" as="geometry">
            <mxPoint x="126" y="125" as="sourcePoint" />
            <mxPoint x="214" y="67" as="targetPoint" />
          </mxGeometry>
        </mxCell>
        <mxCell id="CP-4DiRKg8OsWxBLcnmP-9" value="" style="endArrow=classic;html=1;rounded=0;entryX=0;entryY=0.5;entryDx=0;entryDy=0;exitX=1;exitY=0.5;exitDx=0;exitDy=0;" edge="1" parent="1" source="CP-4DiRKg8OsWxBLcnmP-3" target="CP-4DiRKg8OsWxBLcnmP-5">
          <mxGeometry width="50" height="50" relative="1" as="geometry">
            <mxPoint x="136" y="135" as="sourcePoint" />
            <mxPoint x="224" y="77" as="targetPoint" />
          </mxGeometry>
        </mxCell>
        <mxCell id="CP-4DiRKg8OsWxBLcnmP-10" value="" style="endArrow=classic;html=1;rounded=0;exitX=1;exitY=0;exitDx=0;exitDy=0;" edge="1" parent="1">
          <mxGeometry width="50" height="50" relative="1" as="geometry">
            <mxPoint x="220" y="189" as="sourcePoint" />
            <mxPoint x="300" y="151" as="targetPoint" />
          </mxGeometry>
        </mxCell>
        <mxCell id="CP-4DiRKg8OsWxBLcnmP-11" value="n2" style="text;strokeColor=none;align=center;fillColor=none;html=1;verticalAlign=middle;whiteSpace=wrap;rounded=0;" vertex="1" parent="1">
          <mxGeometry x="175" y="21" width="60" height="30" as="geometry" />
        </mxCell>
        <mxCell id="CP-4DiRKg8OsWxBLcnmP-12" value="n1" style="text;strokeColor=none;align=center;fillColor=none;html=1;verticalAlign=middle;whiteSpace=wrap;rounded=0;" vertex="1" parent="1">
          <mxGeometry x="65" y="101" width="60" height="30" as="geometry" />
        </mxCell>
        <mxCell id="CP-4DiRKg8OsWxBLcnmP-13" value="n3" style="text;strokeColor=none;align=center;fillColor=none;html=1;verticalAlign=middle;whiteSpace=wrap;rounded=0;" vertex="1" parent="1">
          <mxGeometry x="175" y="101" width="60" height="30" as="geometry" />
        </mxCell>
        <mxCell id="CP-4DiRKg8OsWxBLcnmP-14" value="n4" style="text;strokeColor=none;align=center;fillColor=none;html=1;verticalAlign=middle;whiteSpace=wrap;rounded=0;" vertex="1" parent="1">
          <mxGeometry x="175" y="181" width="60" height="30" as="geometry" />
        </mxCell>
        <mxCell id="CP-4DiRKg8OsWxBLcnmP-15" value="n5" style="text;strokeColor=none;align=center;fillColor=none;html=1;verticalAlign=middle;whiteSpace=wrap;rounded=0;" vertex="1" parent="1">
          <mxGeometry x="285" y="131" width="60" height="30" as="geometry" />
        </mxCell>
        <mxCell id="CP-4DiRKg8OsWxBLcnmP-16" value="e1" style="text;strokeColor=none;align=center;fillColor=none;html=1;verticalAlign=middle;whiteSpace=wrap;rounded=0;" vertex="1" parent="1">
          <mxGeometry x="116" y="54" width="60" height="30" as="geometry" />
        </mxCell>
        <mxCell id="CP-4DiRKg8OsWxBLcnmP-17" value="e2" style="text;strokeColor=none;align=center;fillColor=none;html=1;verticalAlign=middle;whiteSpace=wrap;rounded=0;" vertex="1" parent="1">
          <mxGeometry x="119" y="93" width="60" height="30" as="geometry" />
        </mxCell>
        <mxCell id="CP-4DiRKg8OsWxBLcnmP-20" value="e3" style="text;strokeColor=none;align=center;fillColor=none;html=1;verticalAlign=middle;whiteSpace=wrap;rounded=0;" vertex="1" parent="1">
          <mxGeometry x="119" y="130" width="60" height="30" as="geometry" />
        </mxCell>
        <mxCell id="CP-4DiRKg8OsWxBLcnmP-21" value="e4" style="text;strokeColor=none;align=center;fillColor=none;html=1;verticalAlign=middle;whiteSpace=wrap;rounded=0;" vertex="1" parent="1">
          <mxGeometry x="230" y="107" width="60" height="30" as="geometry" />
        </mxCell>
        <mxCell id="CP-4DiRKg8OsWxBLcnmP-22" value="e5" style="text;strokeColor=none;align=center;fillColor=none;html=1;verticalAlign=middle;whiteSpace=wrap;rounded=0;" vertex="1" parent="1">
          <mxGeometry x="230" y="146" width="60" height="30" as="geometry" />
        </mxCell>
        <mxCell id="CP-4DiRKg8OsWxBLcnmP-23" value="" style="html=1;shadow=0;dashed=0;align=center;verticalAlign=middle;shape=mxgraph.arrows2.arrow;dy=0.68;dx=15;notch=0;" vertex="1" parent="1">
          <mxGeometry x="406" y="106" width="30" height="33" as="geometry" />
        </mxCell>
        <mxCell id="CP-4DiRKg8OsWxBLcnmP-24" value="&lt;ul&gt;&lt;li&gt;&lt;div align=&quot;left&quot;&gt;节点n1代表subject，记作SS状态，如果存在多个subject则可以引入编号，用红色表示&lt;/div&gt;&lt;/li&gt;&lt;li&gt;叶子节点所在的Action表示匹配完成，用绿色表示&lt;/li&gt;&lt;li&gt;&lt;div align=&quot;left&quot;&gt;中间状态id与action的中边的id一致，例如S3=e3，记作Sn状态，用黄色表示&lt;/div&gt;&lt;/li&gt;&lt;li&gt;每个边上代表一个匹配规则，subject的规则为SP，Action的规则与TKG上的边的编号保持一致，例如AP1，AP2，...，AP5&lt;br&gt;&lt;/li&gt;&lt;/ul&gt;" style="text;strokeColor=none;align=left;fillColor=none;html=1;verticalAlign=middle;whiteSpace=wrap;rounded=0;" vertex="1" parent="1">
          <mxGeometry x="480" y="210" width="510" height="100" as="geometry" />
        </mxCell>
        <mxCell id="CP-4DiRKg8OsWxBLcnmP-26" value="&lt;b&gt;TKG&amp;nbsp; T1991&lt;/b&gt;" style="text;strokeColor=none;align=center;fillColor=none;html=1;verticalAlign=middle;whiteSpace=wrap;rounded=0;" vertex="1" parent="1">
          <mxGeometry x="165" y="230" width="80" height="30" as="geometry" />
        </mxCell>
        <mxCell id="CP-4DiRKg8OsWxBLcnmP-27" value="&lt;div&gt;Moore状态机&lt;/div&gt;&lt;div&gt;(Sequence Table)&lt;br&gt;&lt;/div&gt;" style="text;strokeColor=none;align=center;fillColor=none;html=1;verticalAlign=middle;whiteSpace=wrap;rounded=0;" vertex="1" parent="1">
          <mxGeometry x="361" y="150" width="104" height="30" as="geometry" />
        </mxCell>
        <mxCell id="CP-4DiRKg8OsWxBLcnmP-38" value="" style="endArrow=classic;html=1;rounded=0;exitX=1;exitY=0.5;exitDx=0;exitDy=0;entryX=0;entryY=0.5;entryDx=0;entryDy=0;" edge="1" parent="1" source="CP-4DiRKg8OsWxBLcnmP-29" target="CP-4DiRKg8OsWxBLcnmP-39">
          <mxGeometry width="50" height="50" relative="1" as="geometry">
            <mxPoint x="740" y="144" as="sourcePoint" />
            <mxPoint x="560" y="284" as="targetPoint" />
          </mxGeometry>
        </mxCell>
        <mxCell id="CP-4DiRKg8OsWxBLcnmP-29" value="SS" style="ellipse;whiteSpace=wrap;html=1;aspect=fixed;container=0;fillColor=#FF0000;" vertex="1" parent="1">
          <mxGeometry x="655" y="64" width="30" height="30" as="geometry" />
        </mxCell>
        <mxCell id="CP-4DiRKg8OsWxBLcnmP-39" value="S1" style="ellipse;whiteSpace=wrap;html=1;aspect=fixed;container=0;fillColor=#66FF66;" vertex="1" parent="1">
          <mxGeometry x="730" y="64" width="30" height="30" as="geometry" />
        </mxCell>
        <mxCell id="CP-4DiRKg8OsWxBLcnmP-40" value="" style="endArrow=classic;html=1;rounded=0;exitX=1;exitY=0.5;exitDx=0;exitDy=0;entryX=0;entryY=0.5;entryDx=0;entryDy=0;" edge="1" parent="1" source="CP-4DiRKg8OsWxBLcnmP-41" target="CP-4DiRKg8OsWxBLcnmP-42">
          <mxGeometry width="50" height="50" relative="1" as="geometry">
            <mxPoint x="740" y="187" as="sourcePoint" />
            <mxPoint x="560" y="327" as="targetPoint" />
          </mxGeometry>
        </mxCell>
        <mxCell id="CP-4DiRKg8OsWxBLcnmP-41" value="SS" style="ellipse;whiteSpace=wrap;html=1;aspect=fixed;container=0;fillColor=#FF0000;" vertex="1" parent="1">
          <mxGeometry x="655" y="107" width="30" height="30" as="geometry" />
        </mxCell>
        <mxCell id="CP-4DiRKg8OsWxBLcnmP-42" value="S2" style="ellipse;whiteSpace=wrap;html=1;aspect=fixed;container=0;fillColor=#FFFF66;" vertex="1" parent="1">
          <mxGeometry x="730" y="107" width="30" height="30" as="geometry" />
        </mxCell>
        <mxCell id="CP-4DiRKg8OsWxBLcnmP-43" value="S4" style="ellipse;whiteSpace=wrap;html=1;aspect=fixed;container=0;fillColor=#66FF66;" vertex="1" parent="1">
          <mxGeometry x="810" y="107" width="30" height="30" as="geometry" />
        </mxCell>
        <mxCell id="CP-4DiRKg8OsWxBLcnmP-44" value="" style="endArrow=classic;html=1;rounded=0;exitX=1;exitY=0.5;exitDx=0;exitDy=0;entryX=0;entryY=0.5;entryDx=0;entryDy=0;" edge="1" parent="1" source="CP-4DiRKg8OsWxBLcnmP-42" target="CP-4DiRKg8OsWxBLcnmP-43">
          <mxGeometry width="50" height="50" relative="1" as="geometry">
            <mxPoint x="695" y="132" as="sourcePoint" />
            <mxPoint x="740" y="132" as="targetPoint" />
          </mxGeometry>
        </mxCell>
        <mxCell id="CP-4DiRKg8OsWxBLcnmP-45" value="" style="endArrow=classic;html=1;rounded=0;exitX=1;exitY=0.5;exitDx=0;exitDy=0;entryX=0;entryY=0.5;entryDx=0;entryDy=0;" edge="1" parent="1" source="CP-4DiRKg8OsWxBLcnmP-46" target="CP-4DiRKg8OsWxBLcnmP-47">
          <mxGeometry width="50" height="50" relative="1" as="geometry">
            <mxPoint x="740" y="234" as="sourcePoint" />
            <mxPoint x="560" y="374" as="targetPoint" />
          </mxGeometry>
        </mxCell>
        <mxCell id="CP-4DiRKg8OsWxBLcnmP-46" value="SS" style="ellipse;whiteSpace=wrap;html=1;aspect=fixed;container=0;fillColor=#FF0000;" vertex="1" parent="1">
          <mxGeometry x="655" y="154" width="30" height="30" as="geometry" />
        </mxCell>
        <mxCell id="CP-4DiRKg8OsWxBLcnmP-47" value="S3" style="ellipse;whiteSpace=wrap;html=1;aspect=fixed;container=0;fillColor=#FFFF66;" vertex="1" parent="1">
          <mxGeometry x="730" y="154" width="30" height="30" as="geometry" />
        </mxCell>
        <mxCell id="CP-4DiRKg8OsWxBLcnmP-48" value="S5" style="ellipse;whiteSpace=wrap;html=1;aspect=fixed;container=0;fillColor=#66FF66;" vertex="1" parent="1">
          <mxGeometry x="810" y="154" width="30" height="30" as="geometry" />
        </mxCell>
        <mxCell id="CP-4DiRKg8OsWxBLcnmP-49" value="" style="endArrow=classic;html=1;rounded=0;exitX=1;exitY=0.5;exitDx=0;exitDy=0;entryX=0;entryY=0.5;entryDx=0;entryDy=0;" edge="1" parent="1" source="CP-4DiRKg8OsWxBLcnmP-47" target="CP-4DiRKg8OsWxBLcnmP-48">
          <mxGeometry width="50" height="50" relative="1" as="geometry">
            <mxPoint x="695" y="179" as="sourcePoint" />
            <mxPoint x="740" y="179" as="targetPoint" />
          </mxGeometry>
        </mxCell>
        <mxCell id="CP-4DiRKg8OsWxBLcnmP-50" value="" style="html=1;shadow=0;dashed=0;align=center;verticalAlign=middle;shape=mxgraph.arrows2.arrow;dy=0.68;dx=15;notch=0;" vertex="1" parent="1">
          <mxGeometry x="406" y="395" width="30" height="33" as="geometry" />
        </mxCell>
        <mxCell id="CP-4DiRKg8OsWxBLcnmP-51" value="&lt;div&gt;Mealy状态机&lt;/div&gt;&lt;div&gt;(Sequence Table)&lt;br&gt;&lt;/div&gt;" style="text;strokeColor=none;align=center;fillColor=none;html=1;verticalAlign=middle;whiteSpace=wrap;rounded=0;" vertex="1" parent="1">
          <mxGeometry x="361" y="439" width="104" height="30" as="geometry" />
        </mxCell>
        <mxCell id="CP-4DiRKg8OsWxBLcnmP-52" value="" style="endArrow=classic;html=1;rounded=0;exitX=1;exitY=0.5;exitDx=0;exitDy=0;entryX=0;entryY=0.5;entryDx=0;entryDy=0;" edge="1" parent="1">
          <mxGeometry width="50" height="50" relative="1" as="geometry">
            <mxPoint x="610" y="78.58" as="sourcePoint" />
            <mxPoint x="655" y="78.58" as="targetPoint" />
          </mxGeometry>
        </mxCell>
        <mxCell id="CP-4DiRKg8OsWxBLcnmP-53" value="" style="endArrow=classic;html=1;rounded=0;exitX=1;exitY=0.5;exitDx=0;exitDy=0;entryX=0;entryY=0.5;entryDx=0;entryDy=0;" edge="1" parent="1">
          <mxGeometry width="50" height="50" relative="1" as="geometry">
            <mxPoint x="610" y="123.17" as="sourcePoint" />
            <mxPoint x="655" y="123.17" as="targetPoint" />
          </mxGeometry>
        </mxCell>
        <mxCell id="CP-4DiRKg8OsWxBLcnmP-54" value="" style="endArrow=classic;html=1;rounded=0;exitX=1;exitY=0.5;exitDx=0;exitDy=0;entryX=0;entryY=0.5;entryDx=0;entryDy=0;" edge="1" parent="1">
          <mxGeometry width="50" height="50" relative="1" as="geometry">
            <mxPoint x="610" y="123.17" as="sourcePoint" />
            <mxPoint x="655" y="123.17" as="targetPoint" />
          </mxGeometry>
        </mxCell>
        <mxCell id="CP-4DiRKg8OsWxBLcnmP-55" value="" style="endArrow=classic;html=1;rounded=0;exitX=1;exitY=0.5;exitDx=0;exitDy=0;entryX=0;entryY=0.5;entryDx=0;entryDy=0;" edge="1" parent="1">
          <mxGeometry width="50" height="50" relative="1" as="geometry">
            <mxPoint x="610" y="169" as="sourcePoint" />
            <mxPoint x="655" y="169" as="targetPoint" />
          </mxGeometry>
        </mxCell>
        <mxCell id="CP-4DiRKg8OsWxBLcnmP-73" value="&lt;b&gt;T1999 rule1&lt;/b&gt;" style="text;strokeColor=none;align=center;fillColor=none;html=1;verticalAlign=middle;whiteSpace=wrap;rounded=0;" vertex="1" parent="1">
          <mxGeometry x="500" y="62" width="80" height="30" as="geometry" />
        </mxCell>
        <mxCell id="CP-4DiRKg8OsWxBLcnmP-74" value="&lt;b&gt;T1999 rule2&lt;/b&gt;" style="text;strokeColor=none;align=center;fillColor=none;html=1;verticalAlign=middle;whiteSpace=wrap;rounded=0;" vertex="1" parent="1">
          <mxGeometry x="498" y="108" width="80" height="30" as="geometry" />
        </mxCell>
        <mxCell id="CP-4DiRKg8OsWxBLcnmP-75" value="&lt;b&gt;T1999 rule3&lt;/b&gt;" style="text;strokeColor=none;align=center;fillColor=none;html=1;verticalAlign=middle;whiteSpace=wrap;rounded=0;" vertex="1" parent="1">
          <mxGeometry x="499" y="154" width="80" height="30" as="geometry" />
        </mxCell>
        <mxCell id="CP-4DiRKg8OsWxBLcnmP-77" value="SP" style="text;strokeColor=none;align=center;fillColor=none;html=1;verticalAlign=middle;whiteSpace=wrap;rounded=0;" vertex="1" parent="1">
          <mxGeometry x="595" y="50" width="60" height="30" as="geometry" />
        </mxCell>
        <mxCell id="CP-4DiRKg8OsWxBLcnmP-78" value="SP" style="text;strokeColor=none;align=center;fillColor=none;html=1;verticalAlign=middle;whiteSpace=wrap;rounded=0;" vertex="1" parent="1">
          <mxGeometry x="595" y="94" width="60" height="30" as="geometry" />
        </mxCell>
        <mxCell id="CP-4DiRKg8OsWxBLcnmP-79" value="SP" style="text;strokeColor=none;align=center;fillColor=none;html=1;verticalAlign=middle;whiteSpace=wrap;rounded=0;" vertex="1" parent="1">
          <mxGeometry x="595" y="139" width="60" height="30" as="geometry" />
        </mxCell>
        <mxCell id="CP-4DiRKg8OsWxBLcnmP-80" value="AP1" style="text;strokeColor=none;align=center;fillColor=none;html=1;verticalAlign=middle;whiteSpace=wrap;rounded=0;" vertex="1" parent="1">
          <mxGeometry x="680" y="50" width="60" height="30" as="geometry" />
        </mxCell>
        <mxCell id="CP-4DiRKg8OsWxBLcnmP-82" value="AP2" style="text;strokeColor=none;align=center;fillColor=none;html=1;verticalAlign=middle;whiteSpace=wrap;rounded=0;" vertex="1" parent="1">
          <mxGeometry x="680" y="91" width="60" height="30" as="geometry" />
        </mxCell>
        <mxCell id="CP-4DiRKg8OsWxBLcnmP-83" value="AP4" style="text;strokeColor=none;align=center;fillColor=none;html=1;verticalAlign=middle;whiteSpace=wrap;rounded=0;" vertex="1" parent="1">
          <mxGeometry x="750" y="92" width="60" height="30" as="geometry" />
        </mxCell>
        <mxCell id="CP-4DiRKg8OsWxBLcnmP-85" value="AP3" style="text;strokeColor=none;align=center;fillColor=none;html=1;verticalAlign=middle;whiteSpace=wrap;rounded=0;" vertex="1" parent="1">
          <mxGeometry x="678" y="138" width="60" height="30" as="geometry" />
        </mxCell>
        <mxCell id="CP-4DiRKg8OsWxBLcnmP-86" value="AP5" style="text;strokeColor=none;align=center;fillColor=none;html=1;verticalAlign=middle;whiteSpace=wrap;rounded=0;" vertex="1" parent="1">
          <mxGeometry x="748" y="139" width="60" height="30" as="geometry" />
        </mxCell>
        <mxCell id="CP-4DiRKg8OsWxBLcnmP-88" value="S1" style="ellipse;whiteSpace=wrap;html=1;aspect=fixed;fillColor=#FF0000;" vertex="1" parent="1">
          <mxGeometry x="619" y="398" width="30" height="30" as="geometry" />
        </mxCell>
        <mxCell id="CP-4DiRKg8OsWxBLcnmP-89" value="S2" style="ellipse;whiteSpace=wrap;html=1;aspect=fixed;fillColor=#33FF33;" vertex="1" parent="1">
          <mxGeometry x="729" y="318" width="30" height="30" as="geometry" />
        </mxCell>
        <mxCell id="CP-4DiRKg8OsWxBLcnmP-90" value="S3" style="ellipse;whiteSpace=wrap;html=1;aspect=fixed;fillColor=#FFFF33;" vertex="1" parent="1">
          <mxGeometry x="729" y="398" width="30" height="30" as="geometry" />
        </mxCell>
        <mxCell id="CP-4DiRKg8OsWxBLcnmP-91" value="S4" style="ellipse;whiteSpace=wrap;html=1;aspect=fixed;fillColor=#FFFF33;" vertex="1" parent="1">
          <mxGeometry x="729" y="478" width="30" height="30" as="geometry" />
        </mxCell>
        <mxCell id="CP-4DiRKg8OsWxBLcnmP-92" value="S5" style="ellipse;whiteSpace=wrap;html=1;aspect=fixed;fillColor=#33FF33;" vertex="1" parent="1">
          <mxGeometry x="839" y="428" width="30" height="30" as="geometry" />
        </mxCell>
        <mxCell id="CP-4DiRKg8OsWxBLcnmP-93" value="" style="endArrow=classic;html=1;rounded=0;entryX=0;entryY=1;entryDx=0;entryDy=0;exitX=1;exitY=0;exitDx=0;exitDy=0;" edge="1" parent="1" source="CP-4DiRKg8OsWxBLcnmP-88" target="CP-4DiRKg8OsWxBLcnmP-89">
          <mxGeometry width="50" height="50" relative="1" as="geometry">
            <mxPoint x="649" y="408" as="sourcePoint" />
            <mxPoint x="699" y="358" as="targetPoint" />
          </mxGeometry>
        </mxCell>
        <mxCell id="CP-4DiRKg8OsWxBLcnmP-94" value="" style="endArrow=classic;html=1;rounded=0;entryX=0;entryY=0.5;entryDx=0;entryDy=0;exitX=1;exitY=0.5;exitDx=0;exitDy=0;" edge="1" parent="1" source="CP-4DiRKg8OsWxBLcnmP-88" target="CP-4DiRKg8OsWxBLcnmP-90">
          <mxGeometry width="50" height="50" relative="1" as="geometry">
            <mxPoint x="655" y="412" as="sourcePoint" />
            <mxPoint x="743" y="354" as="targetPoint" />
          </mxGeometry>
        </mxCell>
        <mxCell id="CP-4DiRKg8OsWxBLcnmP-95" value="" style="endArrow=classic;html=1;rounded=0;entryX=0;entryY=0;entryDx=0;entryDy=0;exitX=1;exitY=1;exitDx=0;exitDy=0;" edge="1" parent="1" source="CP-4DiRKg8OsWxBLcnmP-88" target="CP-4DiRKg8OsWxBLcnmP-91">
          <mxGeometry width="50" height="50" relative="1" as="geometry">
            <mxPoint x="665" y="422" as="sourcePoint" />
            <mxPoint x="753" y="364" as="targetPoint" />
          </mxGeometry>
        </mxCell>
        <mxCell id="CP-4DiRKg8OsWxBLcnmP-96" value="" style="endArrow=classic;html=1;rounded=0;entryX=0;entryY=0.5;entryDx=0;entryDy=0;exitX=1;exitY=0.5;exitDx=0;exitDy=0;" edge="1" parent="1" source="CP-4DiRKg8OsWxBLcnmP-90" target="CP-4DiRKg8OsWxBLcnmP-92">
          <mxGeometry width="50" height="50" relative="1" as="geometry">
            <mxPoint x="675" y="432" as="sourcePoint" />
            <mxPoint x="763" y="374" as="targetPoint" />
          </mxGeometry>
        </mxCell>
        <mxCell id="CP-4DiRKg8OsWxBLcnmP-97" value="" style="endArrow=classic;html=1;rounded=0;exitX=1;exitY=0;exitDx=0;exitDy=0;" edge="1" parent="1">
          <mxGeometry width="50" height="50" relative="1" as="geometry">
            <mxPoint x="759" y="486" as="sourcePoint" />
            <mxPoint x="839" y="448" as="targetPoint" />
          </mxGeometry>
        </mxCell>
        <mxCell id="CP-4DiRKg8OsWxBLcnmP-103" value="AP1" style="text;strokeColor=none;align=center;fillColor=none;html=1;verticalAlign=middle;whiteSpace=wrap;rounded=0;" vertex="1" parent="1">
          <mxGeometry x="655" y="351" width="60" height="30" as="geometry" />
        </mxCell>
        <mxCell id="CP-4DiRKg8OsWxBLcnmP-104" value="AP2" style="text;strokeColor=none;align=center;fillColor=none;html=1;verticalAlign=middle;whiteSpace=wrap;rounded=0;" vertex="1" parent="1">
          <mxGeometry x="658" y="390" width="60" height="30" as="geometry" />
        </mxCell>
        <mxCell id="CP-4DiRKg8OsWxBLcnmP-105" value="AP3" style="text;strokeColor=none;align=center;fillColor=none;html=1;verticalAlign=middle;whiteSpace=wrap;rounded=0;" vertex="1" parent="1">
          <mxGeometry x="658" y="427" width="60" height="30" as="geometry" />
        </mxCell>
        <mxCell id="CP-4DiRKg8OsWxBLcnmP-106" value="AP4" style="text;strokeColor=none;align=center;fillColor=none;html=1;verticalAlign=middle;whiteSpace=wrap;rounded=0;" vertex="1" parent="1">
          <mxGeometry x="769" y="404" width="60" height="30" as="geometry" />
        </mxCell>
        <mxCell id="CP-4DiRKg8OsWxBLcnmP-107" value="AP5" style="text;strokeColor=none;align=center;fillColor=none;html=1;verticalAlign=middle;whiteSpace=wrap;rounded=0;" vertex="1" parent="1">
          <mxGeometry x="769" y="443" width="60" height="30" as="geometry" />
        </mxCell>
        <mxCell id="CP-4DiRKg8OsWxBLcnmP-108" value="&lt;b&gt;T1999 rule&lt;/b&gt;" style="text;strokeColor=none;align=center;fillColor=none;html=1;verticalAlign=middle;whiteSpace=wrap;rounded=0;" vertex="1" parent="1">
          <mxGeometry x="500" y="404" width="80" height="30" as="geometry" />
        </mxCell>
      </root>
    </mxGraphModel>
  </diagram>
</mxfile>
